# Blender v2.91.2 OBJ File: 'HVR2.blend'
# www.blender.org
o WallToCeiling_FloorToWall_Plane.006
v 0.500000 1.000000 0.500000
v -0.086133 1.000000 0.500000
v -0.086133 1.000000 -0.500000
v 0.500000 1.000000 -0.500000
v -0.500000 0.586133 0.500000
v -0.500000 0.000000 0.500000
v -0.500000 -0.000000 -0.500000
v -0.500000 0.586133 -0.500000
v -0.244513 0.968496 0.500000
v -0.244513 0.968496 -0.500000
v -0.378781 0.878781 0.500000
v -0.378781 0.878781 -0.500000
v -0.468496 0.744513 0.500000
v -0.468496 0.744513 -0.500000
vt 0.001953 1.001428
vt 1.001953 1.001429
vt 1.001953 0.356682
vt 0.001953 0.356682
vt 0.000630 0.645290
vt 1.000630 0.645290
vt 1.000630 0.000544
vt 0.000630 0.000544
vt 1.001953 0.179051
vt 0.001953 0.179051
vt 1.001953 0.001420
vt 0.001953 0.001420
vt 1.000630 1.000552
vt 1.000630 0.822921
vt 0.000630 0.822921
vt 0.000630 1.000552
vn -0.0000 1.0000 -0.0000
vn -0.0980 0.9952 -0.0000
vn -0.9952 0.0980 -0.0000
vn -1.0000 -0.0000 0.0000
vn -0.3827 0.9239 -0.0000
vn -0.7071 0.7071 -0.0000
vn -0.9239 0.3827 -0.0000
s 1
f 1/1/1 4/2/1 3/3/2 2/4/2
f 5/5/3 8/6/3 7/7/4 6/8/4
f 3/3/2 10/9/5 9/10/5 2/4/2
f 10/9/5 12/11/6 11/12/6 9/10/5
f 12/13/6 14/14/7 13/15/7 11/16/6
f 14/14/7 8/6/3 5/5/3 13/15/7
