# Blender v2.91.2 OBJ File: 'HVR2.blend'
# www.blender.org
o FloorOrWall.005_FloorOrWall_Plane.004
v -0.500000 0.000000 0.500000
v 0.500000 0.000000 0.500000
v 0.500000 0.000000 -0.500000
v -0.500000 0.000000 -0.500000
v 0.500000 0.000000 -1.500000
v 0.500000 0.000000 -2.500000
v 0.500000 0.000000 -3.500000
v -0.500000 0.000000 -1.500000
v -0.500000 0.000000 -2.500000
v -0.500000 0.000000 -3.500000
vt 0.000125 0.000367
vt 0.999810 0.000367
vt 0.999810 1.000049
vt 0.000125 1.000049
vt 0.000125 0.000367
vt 0.999810 0.000367
vt 0.999810 1.000049
vt 0.000125 1.000049
vt 0.000125 0.000367
vt 0.999810 0.000367
vt 0.999810 1.000049
vt 0.000125 1.000049
vt 0.000125 0.000367
vt 0.999810 0.000367
vt 0.999810 1.000049
vt 0.000125 1.000049
vn -0.0000 1.0000 0.0000
s 1
f 1/1/1 2/2/1 3/3/1 4/4/1
f 4/5/1 3/6/1 5/7/1 8/8/1
f 8/9/1 5/10/1 6/11/1 9/12/1
f 9/13/1 6/14/1 7/15/1 10/16/1
